<svg width="44" height="45" viewBox="0 0 44 45" fill="none" xmlns="http://www.w3.org/2000/svg">
<path d="M31.8091 9.36699V10.467H32.9091H40.7844L37.9068 39.2215C37.7851 40.1778 36.9825 40.9 36.0364 40.9H34.1182V27.357C34.1182 22.5924 32.1117 19.6537 29.3725 16.9514L29.3698 16.9486C27.5963 15.2113 24.8102 13.6914 21.836 12.7698L21.5409 10.467H29.3273H30.4273V9.36699V3.1H31.8091V9.36699ZM3.1 40.181V39.4802H28.2273V40.181C28.2273 40.5673 27.9082 40.9 27.4909 40.9H3.83636C3.41903 40.9 3.1 40.5673 3.1 40.181ZM3.16011 26.3479C3.46101 23.6543 4.8704 21.6051 6.90671 20.1593C9.24444 18.4995 12.4242 17.6339 15.6636 17.6339C18.9031 17.6339 22.0828 18.4995 24.4206 20.1593C26.4569 21.6051 27.8663 23.6543 28.1672 26.3479H3.16011ZM3.13636 32.2041H28.2091V33.6422H3.13636V32.2041Z" stroke="#0049FF" stroke-width="2.2"/>
<path d="M3.1 40.181V39.4802H28.2273V40.181C28.2273 40.5673 27.9082 40.9001 27.4909 40.9001H3.83636C3.41903 40.9001 3.1 40.5673 3.1 40.181ZM3.16011 26.348C3.46102 23.6544 4.8704 21.6052 6.90671 20.1594C9.24444 18.4995 12.4242 17.6339 15.6636 17.6339C18.9031 17.6339 22.0828 18.4995 24.4206 20.1594C26.4569 21.6052 27.8663 23.6544 28.1672 26.348H3.16011ZM3.13636 32.2042H28.2091V33.6422H3.13636V32.2042Z" stroke="#161616" stroke-width="2.2"/>
</svg>
