<svg width="44" height="45" viewBox="0 0 44 45" fill="none" xmlns="http://www.w3.org/2000/svg">
<path fill-rule="evenodd" clip-rule="evenodd" d="M11.7601 19.8952C12.2014 19.6745 12.7272 19.7072 13.1377 19.9809L15.9349 21.8457C16.3454 22.1194 16.8712 22.1521 17.3125 21.9315L21.3851 19.8952C21.7722 19.7016 22.2278 19.7016 22.6149 19.8952L26.6875 21.9315C27.1289 22.1521 27.6546 22.1194 28.0651 21.8457L30.8623 19.9809C31.2728 19.7072 31.7986 19.6745 32.2399 19.8952L35.9671 21.7587C36.0325 21.7914 36.0991 21.8183 36.1664 21.8397C36.7373 22.0211 37.125 22.5512 37.125 23.1502V40.375C37.125 41.1344 36.5094 41.75 35.75 41.75H8.25C7.49061 41.75 6.875 41.1344 6.875 40.375V23.1502C6.875 22.5512 7.26274 22.0211 7.83357 21.8397C7.90092 21.8183 7.96754 21.7914 8.03291 21.7587L11.7601 19.8952ZM9.625 24.0373V39H34.375V24.0373L31.7238 22.7117L29.5906 24.1338C28.3589 24.9549 26.7817 25.0531 25.4577 24.3911L22 22.6623L18.5423 24.3911C17.2183 25.0531 15.6411 24.9549 14.4094 24.1338L12.2762 22.7117L9.625 24.0373Z" fill="#161616"/>
<path fill-rule="evenodd" clip-rule="evenodd" d="M6.93302 6.9799C7.1075 6.39829 7.64282 6 8.25003 6H35.75C36.3572 6 36.8926 6.39829 37.067 6.9799L41.192 20.7299C41.3374 21.2144 41.205 21.7396 40.8473 22.0973L39.4989 23.4457C38.2434 24.7012 36.3254 25.0125 34.7373 24.2184L31.7238 22.7117L29.5906 24.1338C28.3589 24.9549 26.7817 25.0531 25.4577 24.3911L22 22.6623L18.5424 24.3911C17.2184 25.0531 15.6411 24.9549 14.4095 24.1338L12.2763 22.7117L9.26279 24.2184C7.67471 25.0125 5.7567 24.7012 4.50121 23.4457L3.15276 22.0973C2.79508 21.7396 2.66267 21.2144 2.80802 20.7299L6.93302 6.9799ZM9.27308 8.75L5.67804 20.7335L6.44576 21.5012C6.86425 21.9197 7.50359 22.0234 8.03295 21.7587L11.7601 19.8952C12.2015 19.6745 12.7272 19.7072 13.1377 19.9809L15.9349 21.8457C16.3454 22.1194 16.8712 22.1521 17.3125 21.9315L21.3851 19.8952C21.7722 19.7016 22.2279 19.7016 22.615 19.8952L26.6875 21.9315C27.1289 22.1521 27.6546 22.1194 28.0652 21.8457L30.8623 19.9809C31.2729 19.7072 31.7986 19.6745 32.24 19.8952L35.9671 21.7587C36.4965 22.0234 37.1358 21.9197 37.5543 21.5012L38.322 20.7335L34.727 8.75H9.27308Z" fill="#0049FF"/>
<path fill-rule="evenodd" clip-rule="evenodd" d="M26.125 29.375C24.6062 29.375 23.375 30.6062 23.375 32.125V39H28.875V32.125C28.875 30.6062 27.6438 29.375 26.125 29.375ZM20.625 32.125C20.625 29.0874 23.0874 26.625 26.125 26.625C29.1626 26.625 31.625 29.0874 31.625 32.125V41.75H20.625V32.125Z" fill="#161616"/>
<path fill-rule="evenodd" clip-rule="evenodd" d="M11 30.75C11 29.9906 11.6156 29.375 12.375 29.375H16.5C17.2594 29.375 17.875 29.9906 17.875 30.75C17.875 31.5094 17.2594 32.125 16.5 32.125H12.375C11.6156 32.125 11 31.5094 11 30.75Z" fill="#161616"/>
</svg>
