<svg width="44" height="45" viewBox="0 0 44 45" fill="none" xmlns="http://www.w3.org/2000/svg">
<path fill-rule="evenodd" clip-rule="evenodd" d="M13.75 7.375C13.75 6.61561 14.3656 6 15.125 6H28.875C29.6344 6 30.25 6.61561 30.25 7.375V12.875C30.25 13.6344 29.6344 14.25 28.875 14.25H15.125C14.3656 14.25 13.75 13.6344 13.75 12.875V7.375ZM16.5 8.75V11.5H27.5V8.75H16.5Z" fill="#161616"/>
<path fill-rule="evenodd" clip-rule="evenodd" d="M2.75 12.875C2.75 12.1156 3.36561 11.5 4.125 11.5H39.875C40.6344 11.5 41.25 12.1156 41.25 12.875V37.625C41.25 38.3844 40.6344 39 39.875 39H4.125C3.36561 39 2.75 38.3844 2.75 37.625V12.875ZM5.5 14.25V36.25H38.5V14.25H5.5Z" fill="#161616"/>
<path fill-rule="evenodd" clip-rule="evenodd" d="M2.75 12.875C2.75 12.1156 3.36561 11.5 4.125 11.5H39.875C40.6344 11.5 41.25 12.1156 41.25 12.875V22.5C41.25 23.1554 40.7874 23.7198 40.1447 23.8483L26.3947 26.5983C25.65 26.7472 24.9256 26.2643 24.7767 25.5197C24.6278 24.775 25.1107 24.0506 25.8553 23.9017L38.5 21.3728V14.25H5.5V21.3728L18.1447 23.9017C18.8893 24.0506 19.3722 24.775 19.2233 25.5197C19.0744 26.2643 18.35 26.7472 17.6053 26.5983L3.85534 23.8483C3.21263 23.7198 2.75 23.1554 2.75 22.5V12.875Z" fill="#0049FF"/>
<path fill-rule="evenodd" clip-rule="evenodd" d="M17.875 22.5C17.875 21.7406 18.4906 21.125 19.25 21.125H24.75C25.5094 21.125 26.125 21.7406 26.125 22.5V28C26.125 28.7594 25.5094 29.375 24.75 29.375H19.25C18.4906 29.375 17.875 28.7594 17.875 28V22.5ZM20.625 23.875V26.625H23.375V23.875H20.625Z" fill="#161616"/>
</svg>
