<svg width="44" height="45" viewBox="0 0 44 45" fill="none" xmlns="http://www.w3.org/2000/svg">
<path d="M15.1928 31.9979C15.448 32.2561 15.7854 32.4172 16.1467 32.4533L15.1928 31.9979ZM15.1928 31.9979L12.4952 29.3003M15.1928 31.9979L12.4952 29.3003M12.4952 29.3003C12.2371 29.0452 12.0761 28.7082 12.0397 28.3472L12.4952 29.3003ZM35.1153 5.98308C36.561 5.7265 37.7774 5.67819 38.6971 5.81526C38.8392 6.79083 38.7889 8.04589 38.5301 9.5104C38.2329 11.1927 37.6733 13.0809 36.8935 15.0156C35.3295 18.896 32.9221 22.8597 30.1136 25.6526L30.1136 25.6526L30.109 25.6572C29.1165 26.656 28.0387 27.566 26.8877 28.377C26.5679 28.6024 26.3918 28.9808 26.4254 29.3706C26.5713 31.0648 26.4303 32.657 25.8599 33.9662C25.0442 35.8312 23.5499 37.0711 21.9419 37.8975C20.5388 38.6186 19.1003 38.9971 18.0875 39.1898L18.8033 32.6679C18.8372 32.359 18.7389 32.0501 18.5326 31.8177C18.3263 31.5853 18.0313 31.4509 17.7206 31.4479C17.2354 31.4432 16.7508 31.4139 16.2686 31.3601L16.2686 31.36L16.2562 31.3588C16.1497 31.3481 16.0503 31.3007 15.975 31.2246L15.9751 31.2245L15.9706 31.2201L13.273 28.5225L13.273 28.5225L13.2684 28.5179C13.1924 28.4428 13.1449 28.3434 13.1342 28.237L13.1342 28.237L13.133 28.2255C13.0789 27.7403 13.0496 27.2527 13.0451 26.7645C13.0423 26.4536 12.908 26.1585 12.6756 25.9521C12.4431 25.7457 12.1342 25.6472 11.8251 25.6812L5.2979 26.3977C5.49406 25.3842 5.87438 23.9488 6.59586 22.5479C7.42343 20.9409 8.66393 19.4454 10.5309 18.6239C11.8368 18.0546 13.4365 17.9134 15.1366 18.0672C15.5273 18.1026 15.9072 17.9272 16.1338 17.6069C16.9456 16.4592 17.8558 15.3843 18.854 14.3943L18.854 14.3943L18.8569 14.3914C21.6529 11.5975 25.677 9.18885 29.593 7.62181C31.545 6.8407 33.4425 6.27996 35.1153 5.98308ZM16.9459 39.5088C16.934 39.6268 16.9493 39.7459 16.9908 39.857C17.0322 39.9681 17.0987 40.0682 17.185 40.1495C17.2713 40.2308 17.3751 40.2912 17.4885 40.326C17.6019 40.3608 17.7217 40.3691 17.8388 40.3501L16.9459 39.5088ZM23.5826 17.1982C23.7667 18.1234 24.2211 18.9732 24.8882 19.6402C25.3307 20.0834 25.8561 20.435 26.4345 20.6749C27.0133 20.915 27.6338 21.0386 28.2604 21.0386C28.887 21.0386 29.5075 20.915 30.0863 20.6749C30.6647 20.435 31.1902 20.0834 31.6326 19.6402C32.2997 18.9732 32.7541 18.1234 32.9382 17.1982C33.1223 16.2729 33.028 15.3139 32.667 14.4423C32.306 13.5707 31.6947 12.8258 30.9103 12.3016C30.126 11.7775 29.2038 11.4977 28.2604 11.4977C27.317 11.4977 26.3949 11.7775 25.6105 12.3016C24.8261 12.8258 24.2148 13.5707 23.8538 14.4423C23.4929 15.3139 23.3985 16.2729 23.5826 17.1982Z" stroke="#161616" stroke-width="2.2" stroke-linecap="round" stroke-linejoin="round"/>
<mask id="path-2-inside-1_31_8719" fill="white">
<path d="M9.42219 30.75C8.56549 30.8552 7.76848 31.2435 7.15773 31.8534C5.64352 33.3728 5.5 39 5.5 39C5.5 39 11.1306 38.8565 12.6457 37.3405C13.2581 36.7308 13.6471 35.9324 13.75 35.0744"/>
</mask>
<path d="M9.69024 32.9336C10.8962 32.7856 11.7538 31.6879 11.6058 30.4819C11.4578 29.276 10.3601 28.4184 9.15414 28.5664L9.69024 32.9336ZM7.15773 31.8534L5.60317 30.2967L5.59946 30.3004L7.15773 31.8534ZM5.5 39L3.30072 38.9439C3.28534 39.5466 3.51802 40.1293 3.94435 40.5556C4.37069 40.982 4.95332 41.2146 5.55606 41.1993L5.5 39ZM12.6457 37.3405L11.0934 35.7816L11.0896 35.7854L12.6457 37.3405ZM15.9344 35.3363C16.079 34.1299 15.2183 33.0347 14.0119 32.89C12.8056 32.7454 11.7103 33.606 11.5656 34.8124L15.9344 35.3363ZM9.15414 28.5664C7.81072 28.7313 6.56091 29.3403 5.60318 30.2967L8.71229 33.4101C8.97605 33.1468 9.32026 32.979 9.69024 32.9336L9.15414 28.5664ZM5.59946 30.3004C4.82644 31.0761 4.4069 32.1465 4.15586 32.9684C3.88283 33.8623 3.70337 34.8328 3.58259 35.6893C3.46039 36.5558 3.39055 37.3626 3.35105 37.9492C3.3312 38.2441 3.31877 38.4871 3.31124 38.6588C3.30747 38.7447 3.30491 38.813 3.30326 38.8613C3.30244 38.8855 3.30184 38.9046 3.30143 38.9185C3.30122 38.9254 3.30106 38.931 3.30095 38.9353C3.30089 38.9374 3.30084 38.9392 3.3008 38.9406C3.30078 38.9413 3.30077 38.942 3.30075 38.9425C3.30074 38.9428 3.30073 38.9431 3.30073 38.9433C3.30072 38.9436 3.30072 38.9439 5.5 39C7.69928 39.0561 7.69928 39.0564 7.69927 39.0566C7.69927 39.0566 7.69927 39.0569 7.69926 39.057C7.69926 39.0572 7.69925 39.0573 7.69925 39.0573C7.69925 39.0574 7.69926 39.0572 7.69927 39.0566C7.69931 39.0554 7.69938 39.0529 7.69949 39.0492C7.69971 39.0416 7.7001 39.029 7.7007 39.0116C7.70189 38.9767 7.7039 38.9226 7.70701 38.8517C7.71324 38.7097 7.72385 38.5012 7.74112 38.2448C7.77585 37.7288 7.83652 37.0338 7.93948 36.3037C8.04386 35.5635 8.18419 34.8423 8.36395 34.2537C8.56568 33.5932 8.73192 33.3905 8.71601 33.4064L5.59946 30.3004ZM5.5 39C5.55606 41.1993 5.55636 41.1993 5.55668 41.1993C5.55682 41.1993 5.55717 41.1993 5.55744 41.1993C5.55799 41.1992 5.55863 41.1992 5.55935 41.1992C5.56079 41.1992 5.56258 41.1991 5.56471 41.1991C5.56896 41.1989 5.57458 41.1988 5.58151 41.1986C5.59538 41.1982 5.61455 41.1976 5.6387 41.1967C5.687 41.1951 5.75535 41.1925 5.84133 41.1888C6.01313 41.1812 6.25627 41.1688 6.55127 41.1489C7.13817 41.1094 7.94531 41.0395 8.81211 40.9172C9.66885 40.7963 10.6396 40.6166 11.5335 40.3432C12.3551 40.0919 13.4266 39.6714 14.2018 38.8957L11.0896 35.7854C11.1073 35.7677 10.9068 35.9336 10.2465 36.1356C9.65857 36.3154 8.93758 36.4559 8.19728 36.5603C7.46704 36.6634 6.77183 36.7241 6.25564 36.7589C5.99911 36.7761 5.79051 36.7868 5.64847 36.793C5.57752 36.7961 5.52342 36.7981 5.4885 36.7993C5.47105 36.7999 5.45841 36.8003 5.45088 36.8005C5.44712 36.8006 5.44463 36.8007 5.44346 36.8007C5.44288 36.8007 5.44262 36.8007 5.4427 36.8007C5.44274 36.8007 5.44286 36.8007 5.44307 36.8007C5.44317 36.8007 5.44339 36.8007 5.44344 36.8007C5.44368 36.8007 5.44394 36.8007 5.5 39ZM14.198 38.8995C15.1609 37.9407 15.7726 36.6854 15.9344 35.3363L11.5656 34.8124C11.5216 35.1794 11.3553 35.5208 11.0934 35.7816L14.198 38.8995Z" fill="#0049FF" mask="url(#path-2-inside-1_31_8719)"/>
</svg>
