<svg width="24" height="24" viewBox="0 0 24 24" fill="none" xmlns="http://www.w3.org/2000/svg">
<g clip-path="url(#clip0_13_6421)">
<path d="M12 1C9.82441 1 7.69767 1.64514 5.88873 2.85383C4.07979 4.06253 2.66989 5.78049 1.83733 7.79048C1.00477 9.80047 0.786929 12.0122 1.21137 14.146C1.6358 16.2798 2.68345 18.2398 4.22183 19.7782C5.76021 21.3165 7.72022 22.3642 9.85401 22.7886C11.9878 23.2131 14.1995 22.9952 16.2095 22.1627C18.2195 21.3301 19.9375 19.9202 21.1462 18.1113C22.3549 16.3023 23 14.1756 23 12C23 9.08262 21.8411 6.28472 19.7782 4.22183C17.7153 2.15893 14.9174 1 12 1Z" stroke="#D5D5D5" stroke-width="2" stroke-miterlimit="10"/>
<path d="M8.5 8.64287C8.5 8.64287 8.5525 7.54912 9.72313 6.60724C10.4175 6.04787 11.25 5.88599 12 5.87474C12.6831 5.86599 13.2931 5.97912 13.6581 6.15287C14.2831 6.45037 15.5 7.17662 15.5 8.72099C15.5 10.346 14.4375 11.0841 13.2269 11.896C12.0162 12.7079 11.6875 13.5891 11.6875 14.4997" stroke="#D5D5D5" stroke-width="2" stroke-miterlimit="10" stroke-linecap="round"/>
<path d="M11.625 19C12.3154 19 12.875 18.4404 12.875 17.75C12.875 17.0596 12.3154 16.5 11.625 16.5C10.9346 16.5 10.375 17.0596 10.375 17.75C10.375 18.4404 10.9346 19 11.625 19Z" fill="#D5D5D5"/>
</g>
<defs>
<clipPath id="clip0_13_6421">
<rect width="24" height="24" fill="white"/>
</clipPath>
</defs>
</svg>
