<svg width="20" height="20" viewBox="0 0 20 20" fill="none" xmlns="http://www.w3.org/2000/svg">
<path d="M15.3904 18.75C15.2589 18.7505 15.1305 18.7095 15.0236 18.6328L9.99982 14.9906L4.97599 18.6328C4.86866 18.7106 4.73936 18.7523 4.60677 18.7519C4.47418 18.7514 4.34518 18.7087 4.23842 18.6301C4.13165 18.5515 4.05266 18.441 4.01286 18.3145C3.97306 18.188 3.97451 18.0521 4.01701 17.9265L5.97639 12.123L0.89826 8.64061C0.788264 8.56526 0.705246 8.45672 0.661335 8.33083C0.617423 8.20494 0.61492 8.06831 0.654191 7.94089C0.693463 7.81348 0.77245 7.70196 0.879612 7.62264C0.986774 7.54331 1.1165 7.50034 1.24982 7.49999H7.51467L9.40529 1.68163C9.44602 1.55601 9.52549 1.44652 9.6323 1.36887C9.73911 1.29122 9.86777 1.24939 9.99982 1.24939C10.1319 1.24939 10.2605 1.29122 10.3673 1.36887C10.4742 1.44652 10.5536 1.55601 10.5944 1.68163L12.485 7.50194H18.7498C18.8833 7.50187 19.0133 7.54455 19.1208 7.62372C19.2283 7.7029 19.3076 7.8144 19.3471 7.94191C19.3866 8.06943 19.3843 8.20624 19.3404 8.33232C19.2966 8.4584 19.2135 8.56712 19.1033 8.64256L14.0233 12.123L15.9815 17.925C16.0132 18.0189 16.0221 18.1191 16.0075 18.2171C15.9929 18.3152 15.9551 18.4084 15.8974 18.489C15.8397 18.5696 15.7636 18.6353 15.6754 18.6807C15.5873 18.726 15.4896 18.7498 15.3904 18.75Z" fill="#0049FF"/>
</svg>
