<svg width="24" height="24" viewBox="0 0 24 24" fill="none" xmlns="http://www.w3.org/2000/svg">
<g clip-path="url(#clip0_202_691)">
<path d="M12 24C18.6274 24 24 18.6274 24 12C24 5.37258 18.6274 0 12 0C5.37258 0 0 5.37258 0 12C0 18.6274 5.37258 24 12 24Z" fill="#162F67"/>
<path d="M15.3516 10.5938L15.0234 12.75H13.2656V18H10.9219V12.75H9V10.5938H10.9219V8.92969C10.9219 7.05469 12.0469 6 13.7578 6C14.5781 6 15.4453 6.16406 15.4453 6.16406V8.01562H14.4844C13.5469 8.01562 13.2656 8.57812 13.2656 9.1875V10.5938H15.3516Z" fill="#F1F0F5"/>
</g>
<defs>
<clipPath id="clip0_202_691">
<rect width="24" height="24" fill="white"/>
</clipPath>
</defs>
</svg>
