<svg width="24" height="24" viewBox="0 0 24 24" fill="none" xmlns="http://www.w3.org/2000/svg">
<g clip-path="url(#clip0_202_694)">
<path d="M12 24C18.6274 24 24 18.6274 24 12C24 5.37258 18.6274 0 12 0C5.37258 0 0 5.37258 0 12C0 18.6274 5.37258 24 12 24Z" fill="#162F67"/>
<path d="M12.0035 7.0811C13.6076 7.0811 13.7975 7.08814 14.4284 7.11628C15.0147 7.14208 15.3312 7.24057 15.5423 7.32265C15.8214 7.43053 16.0231 7.56185 16.2318 7.77057C16.4428 7.98163 16.5718 8.18097 16.6797 8.46004C16.7618 8.6711 16.8603 8.99003 16.8861 9.57397C16.9142 10.2072 16.9212 10.3971 16.9212 11.9988C16.9212 13.6029 16.9142 13.7928 16.8861 14.4237C16.8603 15.01 16.7618 15.3266 16.6797 15.5376C16.5718 15.8167 16.4405 16.0184 16.2318 16.2271C16.0207 16.4381 15.8214 16.5671 15.5423 16.675C15.3312 16.7571 15.0123 16.8556 14.4284 16.8814C13.7952 16.9095 13.6052 16.9166 12.0035 16.9166C10.3995 16.9166 10.2095 16.9095 9.57866 16.8814C8.99238 16.8556 8.67579 16.7571 8.46473 16.675C8.18566 16.5671 7.98398 16.4358 7.77526 16.2271C7.5642 16.016 7.43522 15.8167 7.32734 15.5376C7.24526 15.3266 7.14677 15.0076 7.12097 14.4237C7.09283 13.7905 7.08579 13.6005 7.08579 11.9988C7.08579 10.3948 7.09283 10.2048 7.12097 9.57397C7.14677 8.98769 7.24526 8.6711 7.32734 8.46004C7.43522 8.18097 7.56654 7.97928 7.77526 7.77057C7.98632 7.55951 8.18566 7.43053 8.46473 7.32265C8.67579 7.24057 8.99472 7.14208 9.57866 7.11628C10.2095 7.08814 10.3995 7.0811 12.0035 7.0811ZM12.0035 6C10.3737 6 10.1696 6.00704 9.52941 6.03518C8.89154 6.06332 8.453 6.1665 8.07309 6.31425C7.67676 6.46902 7.34141 6.67305 7.0084 7.0084C6.67305 7.34141 6.46902 7.67676 6.31425 8.07074C6.1665 8.453 6.06332 8.88919 6.03518 9.52707C6.00704 10.1696 6 10.3737 6 12.0035C6 13.6334 6.00704 13.8374 6.03518 14.4776C6.06332 15.1155 6.1665 15.554 6.31425 15.9339C6.46902 16.3303 6.67305 16.6656 7.0084 16.9986C7.34141 17.3316 7.67676 17.538 8.07074 17.6904C8.453 17.8382 8.88919 17.9414 9.52707 17.9695C10.1673 17.9977 10.3713 18.0047 12.0012 18.0047C13.631 18.0047 13.8351 17.9977 14.4753 17.9695C15.1132 17.9414 15.5517 17.8382 15.9316 17.6904C16.3256 17.538 16.6609 17.3316 16.9939 16.9986C17.3269 16.6656 17.5333 16.3303 17.6858 15.9363C17.8335 15.554 17.9367 15.1178 17.9648 14.48C17.993 13.8398 18 13.6357 18 12.0059C18 10.376 17.993 10.172 17.9648 9.53176C17.9367 8.89388 17.8335 8.45534 17.6858 8.07543C17.538 7.67676 17.334 7.34141 16.9986 7.0084C16.6656 6.6754 16.3303 6.46902 15.9363 6.31659C15.554 6.16885 15.1178 6.06566 14.48 6.03752C13.8374 6.00704 13.6334 6 12.0035 6Z" fill="#F1F0F5"/>
<path d="M12.0038 8.91968C10.3012 8.91968 8.91992 10.301 8.91992 12.0035C8.91992 13.7061 10.3012 15.0874 12.0038 15.0874C13.7063 15.0874 15.0876 13.7061 15.0876 12.0035C15.0876 10.301 13.7063 8.91968 12.0038 8.91968ZM12.0038 14.0039C10.8992 14.0039 10.0034 13.1081 10.0034 12.0035C10.0034 10.899 10.8992 10.0031 12.0038 10.0031C13.1083 10.0031 14.0042 10.899 14.0042 12.0035C14.0042 13.1081 13.1083 14.0039 12.0038 14.0039Z" fill="#F1F0F5"/>
<path d="M15.9292 8.79783C15.9292 9.1965 15.6055 9.51779 15.2092 9.51779C14.8105 9.51779 14.4893 9.19416 14.4893 8.79783C14.4893 8.39916 14.8129 8.07788 15.2092 8.07788C15.6055 8.07788 15.9292 8.40151 15.9292 8.79783Z" fill="#F1F0F5"/>
</g>
<defs>
<clipPath id="clip0_202_694">
<rect width="24" height="24" fill="white"/>
</clipPath>
</defs>
</svg>
