<svg width="24" height="24" viewBox="0 0 24 24" fill="none" xmlns="http://www.w3.org/2000/svg">
<g clip-path="url(#clip0_202_699)">
<path d="M12 24C18.6274 24 24 18.6274 24 12C24 5.37258 18.6274 0 12 0C5.37258 0 0 5.37258 0 12C0 18.6274 5.37258 24 12 24Z" fill="#162F67"/>
<path d="M9.34375 10.4688V17.4766H7.16406V10.4688H9.34375Z" fill="#F1F0F5"/>
<path d="M9.50781 8.24219C9.50781 8.94531 8.94531 9.53125 8.24219 9.53125C7.5625 9.53125 7 8.94531 7 8.24219C7 7.5625 7.5625 7 8.24219 7C8.94531 7 9.50781 7.5625 9.50781 8.24219Z" fill="#F1F0F5"/>
<path d="M17.5 17.4766H15.3203V14.0781C15.3203 13.2578 15.2969 12.2266 14.1719 12.2266C13.0469 12.2266 12.8828 13.0938 12.8828 14.0078V17.4766H10.7031V10.4688H12.7891V11.4297H12.8125C13.1172 10.8906 13.8203 10.3047 14.875 10.3047C17.0781 10.3047 17.5 11.7578 17.5 13.6328V17.4766Z" fill="#F1F0F5"/>
</g>
<defs>
<clipPath id="clip0_202_699">
<rect width="24" height="24" fill="white"/>
</clipPath>
</defs>
</svg>
