<svg width="24" height="24" viewBox="0 0 24 24" fill="none" xmlns="http://www.w3.org/2000/svg">
<g clip-path="url(#clip0_202_704)">
<path d="M12 24C18.6274 24 24 18.6274 24 12C24 5.37258 18.6274 0 12 0C5.37258 0 0 5.37258 0 12C0 18.6274 5.37258 24 12 24Z" fill="#162F67"/>
<path d="M9.77508 16.8751C14.3023 16.8751 16.7791 13.1235 16.7791 9.87105C16.7791 9.76558 16.7768 9.65777 16.7721 9.5523C17.2539 9.20385 17.6697 8.77225 18 8.27777C17.5513 8.47742 17.0748 8.60781 16.587 8.66449C17.1006 8.35657 17.4853 7.87286 17.6695 7.303C17.1863 7.5894 16.6578 7.79143 16.1067 7.90043C15.7354 7.5059 15.2445 7.24468 14.7098 7.15715C14.1752 7.06961 13.6266 7.16065 13.1489 7.41617C12.6711 7.67169 12.2909 8.07747 12.0669 8.57078C11.8429 9.06408 11.7877 9.61743 11.9098 10.1452C10.9312 10.0961 9.97397 9.84197 9.09999 9.39917C8.22601 8.95637 7.45485 8.33484 6.83648 7.57488C6.5222 8.11674 6.42603 8.75794 6.56752 9.36817C6.709 9.97839 7.07753 10.5118 7.5982 10.8601C7.20731 10.8477 6.82499 10.7424 6.48281 10.5531V10.5835C6.48246 11.1522 6.67905 11.7034 7.03915 12.1435C7.39926 12.5836 7.90066 12.8854 8.45812 12.9976C8.09603 13.0967 7.71599 13.1111 7.34742 13.0398C7.50473 13.5288 7.81079 13.9565 8.22289 14.2633C8.63498 14.57 9.13256 14.7404 9.64617 14.7507C8.77421 15.4357 7.69709 15.8072 6.58828 15.8054C6.39164 15.8051 6.1952 15.7931 6 15.7693C7.12643 16.492 8.43677 16.8758 9.77508 16.8751Z" fill="#F1F0F5"/>
</g>
<defs>
<clipPath id="clip0_202_704">
<rect width="24" height="24" fill="white"/>
</clipPath>
</defs>
</svg>
