<svg width="24" height="24" viewBox="0 0 24 24" fill="none" xmlns="http://www.w3.org/2000/svg">
<g clip-path="url(#clip0_202_707)">
<path d="M12 24C18.6274 24 24 18.6274 24 12C24 5.37258 18.6274 0 12 0C5.37258 0 0 5.37258 0 12C0 18.6274 5.37258 24 12 24Z" fill="#162F67"/>
<path d="M20.8207 8.58928C20.8207 8.58928 20.6449 7.41294 20.1035 6.89642C19.418 6.21661 18.6516 6.21327 18.3 6.17329C15.7828 6 12.0035 6 12.0035 6H11.9965C11.9965 6 8.21719 6 5.7 6.17329C5.34844 6.21327 4.58203 6.21661 3.89648 6.89642C3.35508 7.41294 3.18281 8.58928 3.18281 8.58928C3.18281 8.58928 3 9.97223 3 11.3518V12.6448C3 14.0244 3.1793 15.4074 3.1793 15.4074C3.1793 15.4074 3.35508 16.5837 3.89297 17.1003C4.57852 17.7801 5.47852 17.7567 5.8793 17.83C7.3207 17.96 12 18 12 18C12 18 15.7828 17.9933 18.3 17.8234C18.6516 17.7834 19.418 17.7801 20.1035 17.1003C20.6449 16.5837 20.8207 15.4074 20.8207 15.4074C20.8207 15.4074 21 14.0278 21 12.6448V11.3518C21 9.97223 20.8207 8.58928 20.8207 8.58928ZM10.1402 14.2144V9.41905L15.0023 11.825L10.1402 14.2144Z" fill="#F1F0F5"/>
</g>
<defs>
<clipPath id="clip0_202_707">
<rect width="24" height="24" fill="white"/>
</clipPath>
</defs>
</svg>
