<svg width="522" height="179" viewBox="0 0 522 179" fill="none" xmlns="http://www.w3.org/2000/svg">
<g opacity="0.1">
<path d="M421.324 405.82V155.104" stroke="#436CFC" stroke-opacity="0.5" stroke-width="3" stroke-miterlimit="10"/>
<path d="M406.92 368.931V136.739" stroke="#436CFC" stroke-opacity="0.5" stroke-width="3" stroke-miterlimit="10"/>
<path d="M392.673 442.549V165.803" stroke="#436CFC" stroke-opacity="0.5" stroke-width="3" stroke-miterlimit="10"/>
<path d="M378.27 417.477V99.8501" stroke="#436CFC" stroke-opacity="0.5" stroke-width="3" stroke-miterlimit="10"/>
<path d="M364.024 518.882V81.4858" stroke="#436CFC" stroke-opacity="0.5" stroke-width="3" stroke-miterlimit="10"/>
<path d="M306.882 405.82V155.104" stroke="#436CFC" stroke-opacity="0.5" stroke-width="3" stroke-miterlimit="10"/>
<path d="M335.374 442.548V165.802" stroke="#436CFC" stroke-opacity="0.5" stroke-width="3" stroke-miterlimit="10"/>
<path d="M349.778 350.565V136.738" stroke="#436CFC" stroke-opacity="0.5" stroke-width="3" stroke-miterlimit="10"/>
<path d="M106.646 508.18V111.187" stroke="#0049FF" stroke-width="3" stroke-miterlimit="10"/>
<path d="M120.894 495.086V46.991" stroke="#0049FF" stroke-width="3" stroke-miterlimit="10"/>
<path d="M135.141 542.994V91.2261" stroke="#0049FF" stroke-width="3" stroke-miterlimit="10"/>
<path d="M163.791 379.789V165.802" stroke="#0049FF" stroke-width="3" stroke-miterlimit="10"/>
<path d="M149.544 417.476V99.8489" stroke="#0049FF" stroke-width="3" stroke-miterlimit="10"/>
<path d="M306.09 9.7832L315.429 26.2315L324.927 9.7832H306.09Z" fill="#7879F1"/>
<path d="M315.43 29.4251C323.211 29.4251 329.518 23.062 329.518 15.2126C329.518 7.36318 323.211 1 315.43 1C307.65 1 301.343 7.36318 301.343 15.2126C301.343 23.062 307.65 29.4251 315.43 29.4251Z" stroke="#7879F1" stroke-width="2" stroke-miterlimit="10"/>
<path d="M-747 341.143C-706.162 380.587 -638.573 389.21 -590.295 358.869C-543.125 329.166 -518.907 270.559 -470.47 243.252C-425.991 218.18 -369.324 225.207 -323.896 248.362C-255.357 283.335 -213.41 350.246 -150.57 392.564C-117.646 414.601 -76.1745 427.856 -38.3437 416.198C1.2284 404.062 28.6123 368.131 50.2978 332.52C82.4303 279.502 108.39 222.652 144.954 172.668C181.519 122.685 231.538 78.9293 292.004 67.1121C377.954 50.3444 462.48 101.925 521.047 169.315" stroke="#7879F1" stroke-miterlimit="10"/>
<path d="M319.23 72.3826C324.65 72.3826 329.044 67.9498 329.044 62.4817C329.044 57.0136 324.65 52.5808 319.23 52.5808C313.81 52.5808 309.416 57.0136 309.416 62.4817C309.416 67.9498 313.81 72.3826 319.23 72.3826Z" fill="#7879F1"/>
</g>
</svg>
