<svg width="1040" height="258" viewBox="0 0 1040 258" fill="none" xmlns="http://www.w3.org/2000/svg">
<g opacity="0.1">
<path d="M997.583 332.201V228.721" stroke="#436CFC" stroke-opacity="0.5" stroke-width="3" stroke-miterlimit="10"/>
<path d="M1011.99 350.566V210.357" stroke="#436CFC" stroke-opacity="0.5" stroke-width="3" stroke-miterlimit="10"/>
<path d="M1026.23 342.74V191.991" stroke="#436CFC" stroke-opacity="0.5" stroke-width="3" stroke-miterlimit="10"/>
<path d="M1040.48 387.295V210.357" stroke="#436CFC" stroke-opacity="0.5" stroke-width="3" stroke-miterlimit="10"/>
<path d="M768.697 332.201V228.721" stroke="#0049FF" stroke-width="3" stroke-miterlimit="10"/>
<path d="M783.102 350.565V191.991" stroke="#0049FF" stroke-width="3" stroke-miterlimit="10"/>
<path d="M797.347 342.741V239.58" stroke="#0049FF" stroke-width="3" stroke-miterlimit="10"/>
<path d="M811.752 387.295V210.356" stroke="#0049FF" stroke-width="3" stroke-miterlimit="10"/>
<path d="M825.998 350.566V214.668" stroke="#0049FF" stroke-width="3" stroke-miterlimit="10"/>
<path d="M840.243 368.929V191.991" stroke="#0049FF" stroke-width="3" stroke-miterlimit="10"/>
<path d="M854.647 508.18V111.187" stroke="#0049FF" stroke-width="3" stroke-miterlimit="10"/>
<path d="M868.894 495.086V46.991" stroke="#0049FF" stroke-width="3" stroke-miterlimit="10"/>
<path d="M883.14 542.994V91.2261" stroke="#0049FF" stroke-width="3" stroke-miterlimit="10"/>
<path d="M983.337 350.565V210.355" stroke="#0049FF" stroke-width="3" stroke-miterlimit="10"/>
<path d="M968.933 342.74V191.991" stroke="#0049FF" stroke-width="3" stroke-miterlimit="10"/>
<path d="M954.687 387.294V210.355" stroke="#0049FF" stroke-width="3" stroke-miterlimit="10"/>
<path d="M940.441 342.741V228.721" stroke="#0049FF" stroke-width="3" stroke-miterlimit="10"/>
<path d="M926.036 368.929V197.74" stroke="#0049FF" stroke-width="3" stroke-miterlimit="10"/>
<path d="M911.791 379.789V165.802" stroke="#0049FF" stroke-width="3" stroke-miterlimit="10"/>
<path d="M897.544 417.476V99.8489" stroke="#0049FF" stroke-width="3" stroke-miterlimit="10"/>
<path d="M311.087 332.201V228.721" stroke="#0049FF" stroke-width="3" stroke-miterlimit="10"/>
<path d="M325.333 350.566V210.356" stroke="#0049FF" stroke-width="3" stroke-miterlimit="10"/>
<path d="M339.738 342.741V191.992" stroke="#0049FF" stroke-width="3" stroke-miterlimit="10"/>
<path d="M353.983 387.295V210.356" stroke="#0049FF" stroke-width="3" stroke-miterlimit="10"/>
<path d="M368.229 501.475V155.103" stroke="#0049FF" stroke-width="3" stroke-miterlimit="10"/>
<path d="M382.634 368.931V136.739" stroke="#0049FF" stroke-width="3" stroke-miterlimit="10"/>
<path d="M396.879 387.296V165.803" stroke="#0049FF" stroke-width="3" stroke-miterlimit="10"/>
<path d="M411.125 417.476V214.668" stroke="#0049FF" stroke-width="3" stroke-miterlimit="10"/>
<path d="M425.528 486.943V81.4856" stroke="#0049FF" stroke-width="3" stroke-miterlimit="10"/>
<path d="M539.971 332.201V228.721" stroke="#0049FF" stroke-width="3" stroke-miterlimit="10"/>
<path d="M525.567 350.566V210.357" stroke="#0049FF" stroke-width="3" stroke-miterlimit="10"/>
<path d="M511.322 342.74V191.991" stroke="#0049FF" stroke-width="3" stroke-miterlimit="10"/>
<path d="M497.076 387.295V210.357" stroke="#0049FF" stroke-width="3" stroke-miterlimit="10"/>
<path d="M482.671 405.82V155.104" stroke="#0049FF" stroke-width="3" stroke-miterlimit="10"/>
<path d="M468.426 368.931V210.357" stroke="#0049FF" stroke-width="3" stroke-miterlimit="10"/>
<path d="M454.021 442.548V165.802" stroke="#0049FF" stroke-width="3" stroke-miterlimit="10"/>
<path d="M439.775 399.91V136.738" stroke="#0049FF" stroke-width="3" stroke-miterlimit="10"/>
<path d="M296.839 316.072V210.356" stroke="#436CFC" stroke-opacity="0.5" stroke-width="3" stroke-miterlimit="10"/>
<path d="M282.436 342.741V228.721" stroke="#436CFC" stroke-opacity="0.5" stroke-width="3" stroke-miterlimit="10"/>
<path d="M268.19 417.477V210.356" stroke="#436CFC" stroke-opacity="0.5" stroke-width="3" stroke-miterlimit="10"/>
<path d="M253.785 486.943V120.29" stroke="#436CFC" stroke-opacity="0.5" stroke-width="3" stroke-miterlimit="10"/>
<path d="M239.54 368.931V136.739" stroke="#436CFC" stroke-opacity="0.5" stroke-width="3" stroke-miterlimit="10"/>
<path d="M225.294 387.296V165.803" stroke="#436CFC" stroke-opacity="0.5" stroke-width="3" stroke-miterlimit="10"/>
<path d="M210.889 377.713V214.668" stroke="#436CFC" stroke-opacity="0.5" stroke-width="3" stroke-miterlimit="10"/>
<path d="M196.644 521.437V81.4858" stroke="#436CFC" stroke-opacity="0.5" stroke-width="3" stroke-miterlimit="10"/>
<path d="M82.2021 332.201V228.721" stroke="#0049FF" stroke-width="3" stroke-miterlimit="10"/>
<path d="M96.4478 350.565V210.355" stroke="#0049FF" stroke-width="3" stroke-miterlimit="10"/>
<path d="M110.853 342.74V191.991" stroke="#0049FF" stroke-width="3" stroke-miterlimit="10"/>
<path d="M125.098 387.294V210.355" stroke="#0049FF" stroke-width="3" stroke-miterlimit="10"/>
<path d="M139.503 342.741V249.002" stroke="#0049FF" stroke-width="3" stroke-miterlimit="10"/>
<path d="M153.749 368.929V210.355" stroke="#0049FF" stroke-width="3" stroke-miterlimit="10"/>
<path d="M167.996 442.548V165.802" stroke="#0049FF" stroke-width="3" stroke-miterlimit="10"/>
<path d="M182.398 399.91V182.41" stroke="#0049FF" stroke-width="3" stroke-miterlimit="10"/>
<path d="M67.9565 464.266V134.662" stroke="#436CFC" stroke-opacity="0.5" stroke-width="3" stroke-miterlimit="10"/>
<path d="M53.5518 342.739V191.99" stroke="#436CFC" stroke-opacity="0.5" stroke-width="3" stroke-miterlimit="10"/>
<path d="M39.3062 387.294V210.355" stroke="#436CFC" stroke-opacity="0.5" stroke-width="3" stroke-miterlimit="10"/>
<path d="M754.454 350.565V191.991" stroke="#436CFC" stroke-opacity="0.5" stroke-width="3" stroke-miterlimit="10"/>
<path d="M740.208 342.741V239.58" stroke="#436CFC" stroke-opacity="0.5" stroke-width="3" stroke-miterlimit="10"/>
<path d="M725.803 387.295V210.357" stroke="#436CFC" stroke-opacity="0.5" stroke-width="3" stroke-miterlimit="10"/>
<path d="M711.558 350.566V214.668" stroke="#436CFC" stroke-opacity="0.5" stroke-width="3" stroke-miterlimit="10"/>
<path d="M697.311 368.93V191.991" stroke="#436CFC" stroke-opacity="0.5" stroke-width="3" stroke-miterlimit="10"/>
<path d="M682.907 454.046V111.188" stroke="#436CFC" stroke-opacity="0.5" stroke-width="3" stroke-miterlimit="10"/>
<path d="M668.66 495.086V136.738" stroke="#436CFC" stroke-opacity="0.5" stroke-width="3" stroke-miterlimit="10"/>
<path d="M654.415 461.871V96.1765" stroke="#436CFC" stroke-opacity="0.5" stroke-width="3" stroke-miterlimit="10"/>
<path d="M554.216 350.565V210.355" stroke="#0049FF" stroke-width="3" stroke-miterlimit="10"/>
<path d="M568.462 342.74V191.991" stroke="#0049FF" stroke-width="3" stroke-miterlimit="10"/>
<path d="M582.867 387.294V210.355" stroke="#0049FF" stroke-width="3" stroke-miterlimit="10"/>
<path d="M597.112 342.739V228.719" stroke="#0049FF" stroke-width="3" stroke-miterlimit="10"/>
<path d="M611.358 368.929V197.74" stroke="#0049FF" stroke-width="3" stroke-miterlimit="10"/>
<path d="M625.763 379.788V228.719" stroke="#0049FF" stroke-width="3" stroke-miterlimit="10"/>
<path d="M640.008 379.788V197.74" stroke="#0049FF" stroke-width="3" stroke-miterlimit="10"/>
<path d="M388.331 184.806L397.67 201.094L407.009 184.806H388.331Z" fill="#7879F1"/>
<path d="M397.671 204.448C405.452 204.448 411.759 198.085 411.759 190.235C411.759 182.386 405.452 176.023 397.671 176.023C389.891 176.023 383.583 182.386 383.583 190.235C383.583 198.085 389.891 204.448 397.671 204.448Z" stroke="#7879F1" stroke-width="2" stroke-miterlimit="10"/>
<path d="M875.225 238.942L884.564 255.23L894.061 238.942H875.225Z" fill="#7879F1"/>
<path d="M884.565 258.584C892.345 258.584 898.652 252.221 898.652 244.371C898.652 236.522 892.345 230.159 884.565 230.159C876.784 230.159 870.477 236.522 870.477 244.371C870.477 252.221 876.784 258.584 884.565 258.584Z" stroke="#7879F1" stroke-width="2" stroke-miterlimit="10"/>
<path d="M1 341.143C41.8384 380.587 109.427 389.21 157.705 358.869C204.875 329.166 229.093 270.559 277.53 243.252C322.009 218.18 378.676 225.207 424.104 248.362C492.643 283.335 534.59 350.246 597.43 392.564C630.354 414.601 671.825 427.856 709.656 416.198C749.228 404.062 776.612 368.131 798.298 332.52C830.43 279.502 856.39 222.652 892.954 172.668C929.519 122.685 979.538 78.9293 1040 67.1121C1125.95 50.3444 1210.48 101.925 1269.05 169.315" stroke="#7879F1" stroke-miterlimit="10"/>
<path d="M411.125 239.101C411.125 244.53 406.693 249.002 401.311 249.002C395.93 249.002 391.498 244.53 391.498 239.101C391.498 233.671 395.93 229.2 401.311 229.2C406.852 229.2 411.125 233.671 411.125 239.101Z" fill="#7879F1"/>
<path d="M856.073 247.724C856.073 253.153 851.641 257.625 846.259 257.625C840.877 257.625 836.445 253.153 836.445 247.724C836.445 242.294 840.877 237.823 846.259 237.823C851.641 237.823 856.073 242.294 856.073 247.724Z" fill="#7879F1"/>
</g>
</svg>
